<svg width="69" height="51" xmlns="http://www.w3.org/2000/svg"><g fill="none" fill-rule="evenodd"><path d="M66.42 8.156a3.952 3.952 0 0 0-5.568.06L29.951 39.761 9.12 19.402a3.952 3.952 0 0 0-5.567.061 3.941 3.941 0 0 0 .06 5.562l20.828 20.36 6.106 5.236 5.032-5.357 30.9-31.545a3.941 3.941 0 0 0-.06-5.563" fill="#FF6565"/><path d="M65.496 3.54a3.952 3.952 0 0 0-5.568.06L29.026 35.147 8.198 14.786a3.952 3.952 0 0 0-5.569.062 3.941 3.941 0 0 0 .06 5.562l20.83 20.359 6.105 5.237 5.032-5.358 30.9-31.545a3.941 3.941 0 0 0-.06-5.562z" stroke="#3E3E3E" stroke-width="3"/></g></svg>