<svg width="65" height="62" xmlns="http://www.w3.org/2000/svg"><g fill="none" fill-rule="evenodd"><path d="M8.961 31.363c0-13.912 11.29-25.19 25.218-25.19 13.927 0 25.217 11.278 25.217 25.19 0 13.913-11.29 25.19-25.217 25.19-13.928 0-25.218-11.277-25.218-25.19z" stroke="#FF6565" stroke-width="10"/><path d="M1.844 30.23c0-15.848 12.863-28.695 28.728-28.695 15.866 0 28.728 12.847 28.728 28.696 0 15.849-12.862 28.697-28.728 28.697-15.865 0-28.728-12.848-28.728-28.697z" stroke="#3E3E3E" stroke-width="3"/><path stroke="#3E3E3E" stroke-width="3" d="M14.59 30.09l11.67 10.76 17.057-22.418"/></g></svg>