<svg width="62" height="65" xmlns="http://www.w3.org/2000/svg"><g fill="none" fill-rule="evenodd"><path fill="#FF6565" d="M24.441 61.226h3.85V36.618h-3.85zM55.235 14.7c0 4.884-3.964 8.844-8.853 8.844-4.89 0-8.854-3.96-8.854-8.844 0-4.884 3.965-8.843 8.854-8.843 4.89 0 8.853 3.96 8.853 8.843"/><path stroke="#3E3E3E" stroke-width="3" d="M3.73 14.226h43.635l-21.817 23.61zm11.363 49.036h20.91M25.548 37.836v25.426"/><path d="M35.375 9.953c1.757-4.92 6.462-8.44 11.99-8.44 7.029 0 12.727 5.692 12.727 12.713 0 7.022-5.698 12.713-12.727 12.713-1.669 0-3.263-.32-4.724-.904" stroke="#3E3E3E" stroke-width="3"/></g></svg>