<svg width="57" height="54" xmlns="http://www.w3.org/2000/svg"><g fill="none" fill-rule="evenodd"><path d="M54.973 45.218l-18.37-18.961 18.982-18.35a3.472 3.472 0 0 0 .08-4.9 3.482 3.482 0 0 0-4.904-.08l-18.982 18.35-18.37-18.96a3.48 3.48 0 0 0-4.905-.08 3.472 3.472 0 0 0-.08 4.899l18.37 18.96-18.982 18.35a3.473 3.473 0 0 0-.08 4.9 3.48 3.48 0 0 0 4.904.08l18.982-18.35 18.37 18.961a3.482 3.482 0 0 0 4.905.08 3.473 3.473 0 0 0 .08-4.9" fill="#FF6565"/><path d="M50.354 45.987l-18.37-18.961 18.981-18.35a3.472 3.472 0 0 0 .081-4.9 3.482 3.482 0 0 0-4.905-.08L27.16 22.046 8.79 3.086a3.48 3.48 0 0 0-4.906-.08 3.472 3.472 0 0 0-.08 4.899l18.37 18.96-18.982 18.35a3.473 3.473 0 0 0-.08 4.9 3.48 3.48 0 0 0 4.905.08L27 31.845l18.37 18.961a3.482 3.482 0 0 0 4.905.08 3.473 3.473 0 0 0 .08-4.9z" stroke="#3E3E3E" stroke-width="3"/></g></svg>