<svg width="64" height="64" xmlns="http://www.w3.org/2000/svg"><g fill="none" fill-rule="evenodd"><path d="M5.73 30.925c0-14.222 11.54-25.75 25.777-25.75 14.237 0 25.778 11.528 25.778 25.75 0 14.221-11.54 25.75-25.778 25.75-14.237 0-25.778-11.529-25.778-25.75z" stroke="#FF6565" stroke-width="10"/><path d="M4.544 33.6c0-15.85 12.862-28.696 28.728-28.696 15.865 0 28.727 12.847 28.727 28.696 0 15.848-12.862 28.696-28.727 28.696-15.866 0-28.728-12.848-28.728-28.696zm40.161-12.033L21.838 45.633m23.48-.613L21.225 22.18" stroke="#3E3E3E" stroke-width="3"/></g></svg>