<svg width="47" height="49" xmlns="http://www.w3.org/2000/svg"><g fill="none" fill-rule="evenodd"><path fill="#FF6565" d="M46.597 13.419L42.281 9.65l-2.838 3.557-4.13-3.346-3.744 3.634-3.259-3.378-3.525 3.626-3.477-3.37-3.618 3.63-3.386-3.374-4.428 4.53.138.039 7.518 30.338 22.724.769 6.677-32.903z"/><path stroke="#3E3E3E" stroke-width="3" d="M35.637 47.074H12.142L2.3 1.702h42.545z"/><path stroke="#3E3E3E" stroke-width="3" d="M5.619 15.918l3.824-3.494 3.328 3.494 3.826-3.494 3.421 3.494 3.732-3.494 3.197 3.494 3.955-3.494 4.088 3.494 3.028-3.45 3.314 3.076"/></g></svg>