<svg width="67" height="58" xmlns="http://www.w3.org/2000/svg"><g fill="none" fill-rule="evenodd"><path d="M57.863 10.981c-4.391-4.47-11.645-4.538-16.12-.153l-6.288 6.163-6.532-6.65c-4.39-4.47-11.645-4.539-16.12-.152C8.33 14.575 8.26 21.82 12.652 26.29l6.532 6.65L34.78 49.559l.37-.363 16.273-15.95 6.287-6.162c4.475-4.387 4.544-11.632.153-16.103z" stroke="#FF6565" stroke-width="11"/><path d="M58.345 7c-5.082-5.175-13.48-5.255-18.66-.178l-7.278 7.134-7.56-7.698c-5.084-5.174-13.48-5.254-18.661-.176-5.18 5.077-5.26 13.465-.177 18.64l7.561 7.696 18.055 19.237.429-.42L50.89 32.772l7.277-7.133c5.18-5.077 5.26-13.465.177-18.64z" stroke="#2B2B2B" stroke-width="3"/></g></svg>