<svg width="40" height="74" xmlns="http://www.w3.org/2000/svg"><g fill="none" fill-rule="evenodd"><path d="M19.901 73.463C6.748 43.27.171 29.537.171 22.264c0-10.91 8.845-19.753 19.73-19.753.132 0 .132 20.317 0 70.952z" fill="#FF6565"/><g stroke="#2B2B2B" stroke-width="3"><path d="M20.507 30.004c-4.693 0-8.497-3.809-8.497-8.507 0-4.698 3.804-8.507 8.497-8.507 4.692 0 8.497 3.809 8.497 8.507 0 4.698-3.805 8.507-8.497 8.507z"/><path d="M20.658 64.144C9 40.718 3.17 25.782 3.17 19.336 3.17 9.667 11 1.83 20.658 1.83c9.657 0 17.486 7.838 17.486 17.507 0 6.446-5.829 21.382-17.486 44.808z"/></g></g></svg>