<svg width="54" height="58" xmlns="http://www.w3.org/2000/svg"><g stroke-width="3" stroke="#2B2B2B" fill="none" fill-rule="evenodd"><path d="M46.998 55.874H6.932c-2.743 0-4.988-2.242-4.988-4.982V27.788c0-2.74 2.245-4.982 4.988-4.982h40.066c2.743 0 4.987 2.242 4.987 4.982v23.104c0 2.74-2.244 4.982-4.987 4.982zm-31.773-33.26v-9.229c0-6.344 5.196-11.535 11.548-11.535 6.351 0 11.548 5.191 11.548 11.535v9.229"/><path d="M20.806 39.34a6.156 6.156 0 0 1 6.16-6.152 6.156 6.156 0 0 1 6.158 6.152 6.156 6.156 0 0 1-6.159 6.152 6.156 6.156 0 0 1-6.159-6.152z"/></g></svg>