<svg width="54" height="58" xmlns="http://www.w3.org/2000/svg"><g fill="none" fill-rule="evenodd"><path d="M18.316 39.289c0-5.31 4.309-9.613 9.624-9.613s9.623 4.303 9.623 9.613c0 5.309-4.308 9.612-9.623 9.612-5.315 0-9.624-4.303-9.624-9.612m1.155-15.765v-9.228c0-6.345 5.197-11.536 11.548-11.536 6.352 0 11.548 5.191 11.548 11.536v9.228H19.471z" fill="#FF6565"/><path d="M47.395 56.4H7.33c-2.743 0-4.988-2.242-4.988-4.982V28.313c0-2.74 2.245-4.981 4.988-4.981h40.066c2.743 0 4.988 2.241 4.988 4.981v23.105c0 2.74-2.245 4.981-4.988 4.981zM15.622 23.14v-9.23c0-6.344 5.197-11.535 11.548-11.535s11.548 5.19 11.548 11.535v9.228" stroke="#3E3E3E" stroke-width="3"/><path d="M21.203 39.866a6.156 6.156 0 0 1 6.16-6.153 6.156 6.156 0 0 1 6.158 6.153 6.156 6.156 0 0 1-6.159 6.152 6.156 6.156 0 0 1-6.159-6.152z" stroke="#3E3E3E" stroke-width="3"/></g></svg>