<svg width="454" height="105" xmlns="http://www.w3.org/2000/svg"><g fill="#202020" fill-rule="evenodd"><g transform="translate(0 1.981)"><rect x="10.777" width="86.215" height="8.105" rx="4.052"/><rect y="20.262" width="105.074" height="8.105" rx="4.052"/><rect x="21.554" y="40.523" width="61.967" height="8.105" rx="4.052"/><rect x="35.025" y="60.785" width="35.025" height="8.105" rx="4.052"/><rect x="43.107" y="81.046" width="18.859" height="8.105" rx="4.052"/></g><path d="M186.46 6.81h-10.92v30.017h-6.04V6.809h-10.825V1.92h27.786v4.89zm13.352 30.496c-3.704 0-6.707-1.163-9.009-3.488-2.301-2.326-3.452-5.423-3.452-9.29v-.72c0-2.59.501-4.903 1.503-6.941 1.003-2.038 2.41-3.624 4.222-4.76 1.813-1.134 3.834-1.702 6.063-1.702 3.544 0 6.283 1.127 8.215 3.381 1.933 2.254 2.9 5.443 2.9 9.566v2.35h-17.01c.177 2.142.895 3.836 2.154 5.083 1.259 1.247 2.843 1.87 4.751 1.87 2.679 0 4.86-1.079 6.544-3.237l3.151 2.997c-1.042 1.55-2.433 2.753-4.174 3.609-1.74.855-3.692 1.282-5.858 1.282zm-.697-22.225c-1.604 0-2.9.56-3.885 1.678-.987 1.119-1.616 2.677-1.889 4.675h11.139v-.431c-.129-1.95-.65-3.425-1.564-4.424-.914-.999-2.181-1.498-3.801-1.498zm26.366 17.574c1.46 0 2.67-.424 3.633-1.27.962-.848 1.476-1.895 1.54-3.142h5.509c-.064 1.615-.57 3.121-1.516 4.52-.946 1.398-2.23 2.505-3.849 3.32-1.62.816-3.368 1.223-5.244 1.223-3.641 0-6.528-1.175-8.661-3.524-2.133-2.35-3.2-5.595-3.2-9.734v-.6c0-3.948 1.059-7.109 3.176-9.482 2.117-2.374 5.004-3.56 8.66-3.56 3.096 0 5.618.899 7.566 2.697 1.95 1.798 2.972 4.16 3.068 7.085h-5.51c-.063-1.487-.573-2.71-1.527-3.669-.954-.959-2.17-1.438-3.645-1.438-1.892 0-3.352.683-4.378 2.05-1.026 1.366-1.548 3.44-1.564 6.221v.935c0 2.814.51 4.911 1.528 6.294s2.49 2.074 4.414 2.074zm20.858-18.94c1.908-2.207 4.322-3.31 7.241-3.31 5.55 0 8.364 3.157 8.444 9.47v16.952h-5.846V20.092c0-1.79-.389-3.057-1.166-3.8-.778-.744-1.921-1.115-3.429-1.115-2.341 0-4.09 1.039-5.244 3.116v18.534h-5.846V0h5.846v13.714zm58.29-6.906h-10.922v30.018h-6.038V6.809h-10.826V1.92h27.786v4.89zm-2.069 16.807c0-2.541.506-4.831 1.516-6.869 1.01-2.038 2.43-3.604 4.258-4.7 1.828-1.094 3.93-1.642 6.303-1.642 3.512 0 6.363 1.127 8.552 3.381 2.19 2.254 3.372 5.243 3.549 8.967l.024 1.367c0 2.557-.493 4.843-1.48 6.857-.986 2.014-2.397 3.572-4.234 4.675-1.836 1.103-3.957 1.654-6.363 1.654-3.673 0-6.611-1.219-8.817-3.656-2.205-2.438-3.308-5.686-3.308-9.746v-.288zm5.846.504c0 2.669.554 4.759 1.66 6.27 1.107 1.51 2.647 2.265 4.62 2.265 1.972 0 3.508-.767 4.606-2.302 1.099-1.534 1.648-3.78 1.648-6.737 0-2.621-.565-4.7-1.696-6.234-1.13-1.534-2.666-2.301-4.607-2.301-1.908 0-3.424.755-4.547 2.265-1.122 1.51-1.684 3.769-1.684 6.774zm36.928-7.912a14.514 14.514 0 0 0-2.382-.192c-2.678 0-4.482 1.023-5.413 3.069v17.742h-5.845V10.885h5.58l.145 2.901c1.412-2.254 3.368-3.38 5.87-3.38.834 0 1.524.111 2.069.335l-.024 5.467zm9.118-5.323l.168 2.997c1.925-2.318 4.45-3.477 7.578-3.477 5.42 0 8.18 3.093 8.276 9.28v17.142h-5.846V20.02c0-1.647-.357-2.865-1.07-3.657-.714-.79-1.881-1.186-3.501-1.186-2.358 0-4.114 1.063-5.269 3.188v18.462h-5.845V10.885h5.509zm37.529 25.942c-.257-.496-.481-1.303-.674-2.422-1.86 1.934-4.138 2.901-6.832 2.901-2.614 0-4.747-.743-6.4-2.23-1.651-1.486-2.477-3.324-2.477-5.514 0-2.765 1.03-4.887 3.091-6.365 2.061-1.479 5.008-2.218 8.841-2.218h3.585v-1.703c0-1.342-.377-2.417-1.131-3.224-.754-.807-1.9-1.211-3.44-1.211-1.331 0-2.422.332-3.272.995-.85.663-1.275 1.506-1.275 2.53h-5.846c0-1.423.473-2.754 1.42-3.993.946-1.238 2.233-2.21 3.86-2.913 1.629-.703 3.445-1.055 5.45-1.055 3.047 0 5.477.764 7.289 2.29 1.812 1.527 2.742 3.672 2.79 6.438v11.7c0 2.333.33 4.196.987 5.586v.408h-5.966zm-6.424-4.196c1.155 0 2.242-.28 3.26-.84 1.019-.559 1.784-1.31 2.298-2.253v-4.89h-3.152c-2.165 0-3.793.375-4.883 1.126-1.091.751-1.636 1.814-1.636 3.189 0 1.119.373 2.01 1.118 2.673.746.663 1.745.995 2.995.995zm16.432-8.967c0-3.996.93-7.205 2.79-9.626 1.86-2.422 4.354-3.633 7.482-3.633 2.758 0 4.988.96 6.688 2.878V0h5.846v36.827h-5.293l-.289-2.686c-1.748 2.11-4.081 3.165-7 3.165-3.047 0-5.513-1.223-7.398-3.668-1.884-2.446-2.826-5.77-2.826-9.974zm5.845.504c0 2.637.51 4.695 1.528 6.173 1.018 1.479 2.466 2.218 4.342 2.218 2.39 0 4.138-1.063 5.245-3.189V18.293c-1.075-2.077-2.807-3.116-5.197-3.116-1.892 0-3.352.747-4.378 2.241-1.026 1.495-1.54 3.745-1.54 6.75zm21.965-.552c0-2.541.505-4.831 1.515-6.869 1.01-2.038 2.43-3.604 4.258-4.7 1.829-1.094 3.93-1.642 6.303-1.642 3.513 0 6.363 1.127 8.553 3.381 2.189 2.254 3.372 5.243 3.548 8.967L454 24.12c0 2.557-.493 4.843-1.48 6.857-.986 2.014-2.397 3.572-4.234 4.675-1.836 1.103-3.957 1.654-6.363 1.654-3.672 0-6.611-1.219-8.817-3.656-2.205-2.438-3.307-5.686-3.307-9.746v-.288zm5.845.504c0 2.669.554 4.759 1.66 6.27 1.107 1.51 2.647 2.265 4.62 2.265 1.972 0 3.508-.767 4.606-2.302 1.099-1.534 1.648-3.78 1.648-6.737 0-2.621-.565-4.7-1.696-6.234-1.13-1.534-2.666-2.301-4.607-2.301-1.908 0-3.424.755-4.547 2.265-1.122 1.51-1.684 3.769-1.684 6.774zM168.48 84.285h-9.877v-2.076h9.877v2.076zm17.816 10.029h14.826v2.137h-17.383V66.529h2.557v27.785zm27.755 2.548c-1.897 0-3.612-.466-5.145-1.397-1.533-.932-2.725-2.23-3.578-3.895-.852-1.664-1.278-3.531-1.278-5.6v-.884c0-2.137.416-4.062 1.247-5.774.832-1.713 1.99-3.059 3.475-4.038 1.485-.98 3.093-1.47 4.825-1.47 2.708 0 4.856.921 6.444 2.764 1.588 1.843 2.382 4.36 2.382 7.553v1.376h-15.92v.473c0 2.521.726 4.62 2.176 6.299 1.45 1.678 3.275 2.517 5.475 2.517 1.32 0 2.485-.24 3.495-.719 1.01-.48 1.928-1.247 2.753-2.302l1.546 1.172c-1.814 2.617-4.447 3.925-7.897 3.925zm-.454-20.962c-1.856 0-3.42.678-4.69 2.035-1.273 1.356-2.046 3.178-2.32 5.466h13.382v-.267c-.069-2.137-.68-3.877-1.835-5.22-1.155-1.342-2.667-2.014-4.537-2.014zm17.466-7.377v5.692h4.619v2.014h-4.62v14.817c0 1.233.224 2.151.67 2.754.448.603 1.193.904 2.238.904.413 0 1.08-.068 2-.205l.103 2.014c-.646.232-1.525.349-2.639.349-1.69 0-2.921-.49-3.691-1.47-.77-.979-1.155-2.421-1.155-4.325V76.229h-4.103v-2.014h4.103v-5.692h2.475zm11.176-.74l-.35 6.268h-1.856c.068-4.056.103-7.11.103-9.166h2.103v2.898zM259.684 90.8c0-1.22-.492-2.2-1.475-2.94-.983-.739-2.464-1.318-4.443-1.736-1.98-.418-3.516-.897-4.609-1.438-1.093-.541-1.904-1.203-2.433-1.983-.53-.781-.794-1.727-.794-2.836 0-1.754.735-3.203 2.206-4.347 1.471-1.144 3.355-1.716 5.65-1.716 2.489 0 4.485.613 5.99 1.84 1.506 1.226 2.258 2.825 2.258 4.798h-2.474c0-1.302-.546-2.384-1.64-3.247-1.092-.863-2.47-1.295-4.134-1.295-1.622 0-2.924.36-3.907 1.08-.983.718-1.475 1.654-1.475 2.804 0 1.11.41 1.97 1.227 2.58.818.61 2.31 1.167 4.475 1.674 2.165.507 3.787 1.048 4.866 1.624 1.08.575 1.88 1.267 2.403 2.075.522.809.783 1.788.783 2.94 0 1.876-.76 3.376-2.278 4.5-1.52 1.123-3.502 1.685-5.95 1.685-2.598 0-4.704-.627-6.32-1.88-1.615-1.254-2.422-2.84-2.422-4.758h2.474c.096 1.439.705 2.559 1.825 3.36 1.12.802 2.602 1.202 4.444 1.202 1.718 0 3.106-.376 4.165-1.13 1.059-.753 1.588-1.706 1.588-2.856zm22.125-22.277v5.692h4.62v2.014h-4.62v14.817c0 1.233.224 2.151.67 2.754.447.603 1.193.904 2.238.904.412 0 1.079-.068 2-.205l.103 2.014c-.646.232-1.526.349-2.64.349-1.69 0-2.92-.49-3.69-1.47-.77-.979-1.155-2.421-1.155-4.325V76.229h-4.103v-2.014h4.103v-5.692h2.474zm18.373 28.339c-1.897 0-3.612-.466-5.145-1.397-1.532-.932-2.725-2.23-3.577-3.895-.853-1.664-1.279-3.531-1.279-5.6v-.884c0-2.137.416-4.062 1.248-5.774.832-1.713 1.99-3.059 3.474-4.038 1.485-.98 3.093-1.47 4.826-1.47 2.708 0 4.856.921 6.443 2.764 1.588 1.843 2.382 4.36 2.382 7.553v1.376h-15.919v.473c0 2.521.725 4.62 2.176 6.299 1.45 1.678 3.275 2.517 5.474 2.517 1.32 0 2.485-.24 3.495-.719 1.01-.48 1.928-1.247 2.753-2.302l1.547 1.172c-1.815 2.617-4.447 3.925-7.898 3.925zM299.73 75.9c-1.856 0-3.42.678-4.692 2.035-1.271 1.356-2.044 3.178-2.32 5.466H306.1v-.267c-.068-2.137-.68-3.877-1.835-5.22-1.155-1.342-2.667-2.014-4.536-2.014zm27.713 20.55c-.247-.698-.405-1.732-.474-3.102-.866 1.123-1.97 1.99-3.31 2.6-1.34.61-2.76.914-4.258.914-2.144 0-3.88-.596-5.206-1.788-1.327-1.192-1.99-2.699-1.99-4.521 0-2.165.904-3.877 2.711-5.138 1.808-1.26 4.327-1.89 7.558-1.89h4.474v-2.528c0-1.59-.491-2.84-1.474-3.75-.983-.912-2.416-1.367-4.3-1.367-1.718 0-3.14.438-4.268 1.315-1.127.877-1.69 1.932-1.69 3.165l-2.475-.02c0-1.768.825-3.3 2.474-4.594 1.65-1.295 3.678-1.942 6.083-1.942 2.489 0 4.451.62 5.888 1.86 1.436 1.24 2.175 2.97 2.216 5.189v10.522c0 2.15.227 3.76.68 4.83v.246h-2.639zm-7.753-1.766c1.65 0 3.124-.398 4.423-1.192 1.3-.795 2.244-1.857 2.835-3.186v-4.89h-4.412c-2.461.027-4.386.475-5.774 1.345s-2.083 2.066-2.083 3.586c0 1.247.464 2.282 1.392 3.104.928.822 2.134 1.233 3.62 1.233zm26.6-18.373a9.247 9.247 0 0 0-1.67-.144c-1.54 0-2.842.429-3.907 1.285-1.066.856-1.825 2.1-2.279 3.73V96.45h-2.454V74.215h2.413l.041 3.535c1.306-2.63 3.402-3.946 6.29-3.946.687 0 1.23.09 1.628.267l-.062 2.24zm16.93 20.14h-2.475V74.215h2.475v22.236zm-2.908-28.668c0-.466.151-.86.454-1.182.302-.322.715-.483 1.237-.483.523 0 .938.161 1.248.483.309.322.464.716.464 1.182 0 .466-.155.856-.464 1.171-.31.315-.725.473-1.248.473-.522 0-.935-.158-1.237-.473-.303-.315-.454-.705-.454-1.171zm13.445.74v5.692h4.619v2.014h-4.62v14.817c0 1.233.224 2.151.67 2.754.448.603 1.193.904 2.238.904.413 0 1.08-.068 2-.205l.104 2.014c-.647.232-1.526.349-2.64.349-1.69 0-2.921-.49-3.69-1.47-.77-.979-1.156-2.421-1.156-4.325V76.229h-4.103v-2.014h4.103v-5.692h2.475zm34.353 25.113c-1.484 2.15-3.856 3.226-7.114 3.226-2.378 0-4.186-.688-5.423-2.065s-1.87-3.415-1.897-6.114V74.215h2.454v14.16c0 4.233 1.718 6.35 5.155 6.35 3.574 0 5.836-1.473 6.784-4.419v-16.09h2.475V96.45h-2.392l-.042-2.815zm26.786-8.077c0 3.466-.77 6.217-2.31 8.251-1.539 2.035-3.601 3.052-6.185 3.052-3.052 0-5.39-1.069-7.011-3.206V105h-2.454V74.215h2.289l.123 3.144c1.609-2.37 3.939-3.555 6.99-3.555 2.668 0 4.76 1.007 6.28 3.021 1.519 2.014 2.278 4.809 2.278 8.385v.35zm-2.474-.431c0-2.836-.584-5.076-1.753-6.72-1.168-1.645-2.797-2.467-4.887-2.467-1.512 0-2.811.363-3.897 1.09-1.086.726-1.918 1.78-2.495 3.164v10.666c.59 1.274 1.436 2.247 2.536 2.918 1.1.672 2.399 1.007 3.897 1.007 2.076 0 3.695-.825 4.856-2.476 1.162-1.65 1.743-4.045 1.743-7.182zm10.578 3h-2.289l-.124-21.599h2.557L443 88.128zm-2.701 6.884c0-.465.151-.86.453-1.181.303-.322.715-.483 1.238-.483.522 0 .938.16 1.247.483.31.322.464.716.464 1.181 0 .453-.155.833-.464 1.141-.31.308-.725.462-1.247.462-.523 0-.935-.154-1.238-.462a1.565 1.565 0 0 1-.453-1.14z"/></g></svg>