<svg width="21" height="55" xmlns="http://www.w3.org/2000/svg"><g fill="none" fill-rule="evenodd"><path d="M13 2v52.182" stroke="#FF6565" stroke-width="5"/><path d="M9.755 40.02c2.43 0 4.32-.442 5.67-1.328 1.35-.885 2.025-2.317 2.025-4.297 0-1.14-.217-2.092-.652-2.858a6.108 6.108 0 0 0-1.733-1.934 11.441 11.441 0 0 0-2.475-1.35c-.93-.376-1.905-.773-2.925-1.193A34.684 34.684 0 0 1 6.2 25.485c-1.02-.54-1.89-1.147-2.61-1.822a6.895 6.895 0 0 1-1.642-2.318c-.376-.87-.563-1.89-.563-3.06 0-2.67.885-4.695 2.655-6.075 1.77-1.38 4.23-2.07 7.38-2.07.84 0 1.665.06 2.475.18s1.567.277 2.273.473c.705.195 1.35.412 1.934.652a7.72 7.72 0 0 1 1.463.765l-1.08 2.565c-.87-.6-1.927-1.08-3.172-1.44-1.246-.36-2.588-.54-4.028-.54-.99 0-1.897.097-2.723.293-.825.195-1.537.51-2.137.945-.6.435-1.072.982-1.417 1.642-.346.66-.518 1.455-.518 2.385 0 .96.18 1.77.54 2.43.36.66.862 1.23 1.507 1.71.646.48 1.403.915 2.273 1.305.87.39 1.815.795 2.835 1.215 1.23.51 2.392 1.02 3.488 1.53 1.095.51 2.047 1.11 2.857 1.8s1.455 1.53 1.935 2.52.72 2.205.72 3.645c0 2.82-.982 4.935-2.947 6.345-1.966 1.41-4.628 2.115-7.988 2.115-1.2 0-2.295-.075-3.285-.225-.99-.15-1.875-.337-2.655-.563-.78-.225-1.44-.457-1.98-.697-.54-.24-.96-.45-1.26-.63l.99-2.655c.3.18.705.39 1.215.63.51.24 1.11.472 1.8.698a16.77 16.77 0 0 0 5.22.787z" fill="#2F2F2F"/><path d="M11 0v52.182" stroke="#2B2B2B" stroke-width="3"/></g></svg>