<svg width="47" height="68" xmlns="http://www.w3.org/2000/svg"><g fill="none" fill-rule="evenodd"><path d="M30.397 11.73c0-4.321 3.506-7.823 7.831-7.823 4.325 0 7.832 3.502 7.832 7.822s-3.507 7.823-7.832 7.823c-4.325 0-7.83-3.503-7.83-7.823M5.762 35.569c0-4.32 3.505-7.823 7.83-7.823 4.326 0 7.832 3.502 7.832 7.823 0 4.32-3.506 7.822-7.831 7.822-4.326 0-7.831-3.502-7.831-7.822m31.696 16.786c4.325 0 7.832 3.502 7.832 7.822S41.783 68 37.458 68c-4.325 0-7.83-3.502-7.83-7.823 0-4.32 3.505-7.822 7.83-7.822z" fill="#FF6565"/><path d="M27.318 10.191c0-4.32 3.506-7.822 7.83-7.822 4.326 0 7.833 3.502 7.833 7.822s-3.507 7.823-7.832 7.823c-4.325 0-7.831-3.503-7.831-7.823zM2.146 34.218c0-4.32 3.506-7.822 7.83-7.822 4.326 0 7.832 3.502 7.832 7.822s-3.506 7.822-7.831 7.822c-4.325 0-7.831-3.502-7.831-7.822zm27.355-18.611L15.41 28.096M27.318 58.27c0 4.32 3.506 7.822 7.83 7.822 4.326 0 7.833-3.502 7.833-7.823 0-4.32-3.507-7.822-7.832-7.822-4.325 0-7.831 3.502-7.831 7.822zm2.183-5.417L15.41 40.364" stroke="#2B2B2B" stroke-width="3"/></g></svg>