<svg width="45" height="67" xmlns="http://www.w3.org/2000/svg"><path d="M27.46 9.432c0-4.32 3.506-7.823 7.831-7.823 4.325 0 7.832 3.502 7.832 7.823 0 4.32-3.507 7.822-7.832 7.822-4.325 0-7.83-3.502-7.83-7.822zM2.288 33.459c0-4.32 3.506-7.823 7.831-7.823 4.325 0 7.832 3.502 7.832 7.823 0 4.32-3.507 7.822-7.832 7.822-4.325 0-7.831-3.502-7.831-7.822zm27.356-18.611L15.55 27.337M27.46 57.51c0 4.32 3.506 7.822 7.831 7.822 4.325 0 7.832-3.502 7.832-7.822s-3.507-7.822-7.832-7.822c-4.325 0-7.83 3.502-7.83 7.822zm2.184-5.416L15.55 39.605" stroke-width="3" stroke="#2B2B2B" fill="none"/></svg>