<svg width="46" height="50" xmlns="http://www.w3.org/2000/svg"><g fill="none"><path d="M1.142 8l19.607.517 22.218 22.22-19.091 19.09L1.66 27.613 1.14 8z" fill="#FF6565"/><path d="M.58.586A1.995 1.995 0 0 0 0 2.047l.522 19.71c.013.529.23 1.024.6 1.394l22.254 22.254c.776.776 2.072.804 2.858.019l19.19-19.19c.786-.786.756-2.082-.019-2.857L23.152 1.123A2.046 2.046 0 0 0 21.76.521L2.049.001A2 2 0 0 0 .582.585H.58zm1.499 1.493l19.607.517 22.218 22.22-19.091 19.09L2.597 21.692 2.08 2.079zm6.212 6.214a4.69 4.69 0 0 0 0 6.61 4.688 4.688 0 0 0 6.608 0c1.817-1.817 1.816-4.793 0-6.61a4.688 4.688 0 0 0-6.608 0zM9.76 9.762a2.578 2.578 0 0 1 3.67 0 2.578 2.578 0 0 1 0 3.67 2.578 2.578 0 0 1-3.67 0 2.578 2.578 0 0 1 0-3.67z" fill="#000"/></g></svg>