<svg width="65" height="63" xmlns="http://www.w3.org/2000/svg"><g fill="none" fill-rule="evenodd"><path d="M39.419 39.489c4.764-2.69 8.049-8.33 8.049-14.863 0-9.138-6.418-16.546-14.335-16.546-7.916 0-14.335 7.408-14.335 16.546 0 6.506 3.257 12.13 7.988 14.833L8.606 50.082v8.91h46.507v-8.274l-15.694-11.23z" fill="#FF6565"/><path d="M33.26 41.796c4.764-2.69 8.049-8.33 8.049-14.863 0-9.138-6.418-16.546-14.335-16.546-7.916 0-14.335 7.408-14.335 16.546 0 6.506 3.257 12.13 7.988 14.833L2.447 52.389v8.91h46.507v-8.274L33.26 41.795z" stroke="#3E3E3E" stroke-width="3"/><path d="M55.467 52.389h7.503v-8.273l-15.694-11.23c4.764-2.689 8.049-8.329 8.049-14.862 0-9.139-6.418-16.547-14.335-16.547-3.64 0-6.964 1.567-9.492 4.148" stroke="#3E3E3E" stroke-width="3"/></g></svg>